<svg xmlns="http://www.w3.org/2000/svg" height="48" viewBox="0 -960 960 960" width="48"><style>svg{fill:#fff}</style><path d="M481.154-134.001q-144.666 0-245.332-100.667Q135.155-335.334 135.155-480q0-138.768 93.615-237.883 93.614-99.115 230.075-107.192 1.153 0 5.114.307 3.962.308 14.961.539-27.153 35.846-36.96 76.692-9.808 40.845-9.808 75.537 0 96.334 68.834 168.668 68.834 72.333 173.168 72.333 43.307 0 80.845-10.691 37.538-10.692 70-32.615.23 8.384.538 13.23.308 4.846.308 3.384-7.693 136.461-106.808 230.075-99.115 93.615-237.883 93.615Z"/></svg>