<svg xmlns="http://www.w3.org/2000/svg" height="48" viewBox="0 -960 960 960" width="48"><style>svg{fill:#212121}</style><path d="M480.615-34.31 347.076-163.775H164.001v-183.601L32.079-480l131.696-132.924v-183.075h183.601l133.239-131.922 132.309 131.696h183.075v183.601L927.921-480 796.225-347.076v183.075H612.624L480.615-34.31Zm-.039-254.537q80.674 0 136.433-55.528 55.759-55.527 55.759-136.201 0-80.674-55.812-136.433-55.812-55.759-136.486-55.759-80.674 0-136.148 55.812-55.475 55.812-55.475 136.486 0 80.674 55.528 136.148 55.527 55.475 136.201 55.475Zm.157-58.384q-56.118 0-94.81-38.494-38.692-38.495-38.692-94.773 0-56.117 38.494-95.002 38.495-38.885 94.773-38.885 56.117 0 95.002 38.767t38.885 94.885q0 56.118-38.767 94.81t-94.885 38.692Zm-.118 230.923 107.01-106.253h149.813v-149.506L845.307-480 737.374-587.933v-149.505H587.869L480.615-845.307 372.131-737.438H222.626v149.505L114.693-480l107.868 107.933v149.506h148.955l109.099 106.253Zm0-364.307Z"/></svg>